<svg width="934" height="211" viewBox="0 0 934 211" fill="none" xmlns="http://www.w3.org/2000/svg">
<path d="M21.8107 109.25H6.42871C5.62836 109.25 5.22818 108.9 5.22818 108.199L5.07811 3.47194C5.07811 2.67094 5.47829 2.27082 6.27864 2.27082H20.1599L46.1218 62.8547L45.3714 3.47194C45.3714 2.67094 45.8215 2.27082 46.7218 2.27082H61.9538C62.5539 2.27082 62.8541 2.67094 62.8541 3.47194L63.0044 108.349C63.0044 108.95 62.754 109.25 62.254 109.25H48.7476L22.1108 52.6449L23.2363 108.049C23.2363 108.85 22.7611 109.25 21.8107 109.25ZM71.183 108.499L90.2417 2.8712C90.3414 2.47107 90.5918 2.27082 90.9917 2.27082H113.277C113.677 2.27082 113.927 2.47107 114.027 2.8712L132.335 108.499C132.386 109 132.186 109.25 131.735 109.25H114.702C114.202 109.25 113.927 109 113.877 108.499L112.227 97.2384H91.2919L89.6413 108.499C89.591 109 89.3411 109.25 88.8909 109.25H71.783C71.3831 109.25 71.183 109 71.183 108.499ZM102.847 37.6303L101.947 31.9247L101.271 37.6303L94.3683 80.7973H109.15L102.847 37.6303ZM170.378 110.752C164.925 110.752 159.898 109.35 155.296 106.547C150.744 103.745 147.067 100.016 144.266 95.3616C141.515 90.6568 140.139 85.5021 140.139 79.8966L140.289 31.174C140.289 25.4683 141.665 20.3383 144.416 15.7839C147.117 11.1793 150.769 7.50095 155.371 4.74807C159.973 1.94532 164.975 0.543945 170.378 0.543945C175.98 0.543945 181.007 1.9202 185.459 4.67307C189.961 7.42557 193.563 11.1294 196.264 15.7839C199.016 20.3882 200.391 25.5182 200.391 31.174L200.541 79.8966C200.541 85.5021 199.191 90.6321 196.489 95.2866C193.738 99.991 190.087 103.745 185.535 106.547C180.982 109.35 175.93 110.752 170.378 110.752ZM170.378 92.2086C173.479 92.2086 176.18 90.9572 178.481 88.4548C180.783 85.9022 181.933 83.0496 181.933 79.8966L181.783 31.174C181.783 27.7705 180.707 24.8927 178.556 22.5403C176.405 20.1883 173.679 19.0119 170.378 19.0119C167.226 19.0119 164.525 20.1632 162.274 22.4653C160.023 24.7678 158.897 27.6703 158.897 31.174V79.8966C158.897 83.2498 160.023 86.1527 162.274 88.6048C164.525 91.0074 167.226 92.2086 170.378 92.2086ZM244.961 109.25H227.628C227.178 109.25 226.953 109 226.953 108.499V20.8138H206.994C206.494 20.8138 206.244 20.5637 206.244 20.0631L206.394 2.8712C206.394 2.47107 206.594 2.27082 206.994 2.27082H265.37C265.921 2.27082 266.196 2.47107 266.196 2.8712V20.0631C266.196 20.5637 265.996 20.8138 265.596 20.8138H245.411L245.562 108.499C245.562 109 245.361 109.25 244.961 109.25ZM302.137 110.752C296.685 110.752 291.657 109.35 287.055 106.547C282.503 103.745 278.827 100.016 276.025 95.3616C273.274 90.6568 271.898 85.5021 271.898 79.8966L272.049 31.174C272.049 25.4683 273.424 20.3383 276.175 15.7839C278.877 11.1793 282.528 7.50095 287.13 4.74807C291.733 1.94532 296.735 0.543945 302.137 0.543945C307.74 0.543945 312.767 1.9202 317.219 4.67307C321.721 7.42557 325.322 11.1294 328.024 15.7839C330.775 20.3882 332.151 25.5182 332.151 31.174L332.301 79.8966C332.301 85.5021 330.95 90.6321 328.249 95.2866C325.498 99.991 321.846 103.745 317.294 106.547C312.742 109.35 307.69 110.752 302.137 110.752ZM302.137 92.2086C305.239 92.2086 307.94 90.9572 310.241 88.4548C312.542 85.9022 313.692 83.0496 313.692 79.8966L313.542 31.174C313.542 27.7705 312.467 24.8927 310.316 22.5403C308.165 20.1883 305.439 19.0119 302.137 19.0119C298.986 19.0119 296.284 20.1632 294.033 22.4653C291.782 24.7678 290.657 27.6703 290.657 31.174V79.8966C290.657 83.2498 291.782 86.1527 294.033 88.6048C296.284 91.0074 298.986 92.2086 302.137 92.2086ZM402.007 109.25H384.598C384.099 109.25 383.848 109 383.848 108.499L383.998 2.8712C383.998 2.47107 384.201 2.27082 384.598 2.27082H401.858C402.259 2.27082 402.457 2.47107 402.457 2.8712L402.607 108.499C402.607 109 402.409 109.25 402.007 109.25ZM442.224 110.752C436.774 110.752 431.744 109.35 427.142 106.547C422.592 103.745 418.941 100.016 416.19 95.3616C413.488 90.6568 412.138 85.5021 412.138 79.8966V72.8394C412.138 72.2889 412.386 72.0137 412.888 72.0137H430.144C430.545 72.0137 430.744 72.2889 430.744 72.8394V79.8966C430.744 83.2498 431.872 86.1527 434.121 88.6048C436.373 91.0074 439.076 92.2086 442.224 92.2086C445.428 92.2086 448.153 90.9823 450.406 88.5298C452.655 86.0275 453.779 83.1497 453.779 79.8966C453.779 76.1428 451.328 72.8646 446.425 70.0618C445.627 69.5612 444.578 68.9608 443.277 68.2599C442.025 67.5092 440.526 66.6587 438.772 65.7077C437.022 64.7567 435.324 63.8308 433.671 62.9297C432.022 61.9791 430.421 61.0779 428.87 60.2271C423.266 56.9241 419.091 52.7949 416.34 47.8401C413.638 42.8353 412.288 37.2298 412.288 31.0236C412.288 25.3183 413.686 20.1632 416.49 15.5586C419.29 11.0042 422.94 7.40082 427.445 4.74807C431.995 2.04545 436.924 0.694321 442.224 0.694321C447.677 0.694321 452.681 2.04545 457.231 4.74807C461.785 7.50095 465.409 11.1542 468.112 15.7089C470.863 20.2633 472.238 25.3682 472.238 31.0236V43.6359C472.238 44.0364 472.039 44.2367 471.638 44.2367H454.382C453.981 44.2367 453.779 44.0364 453.779 43.6359L453.629 31.0236C453.629 27.4202 452.505 24.4922 450.252 22.2403C448.003 19.9881 445.327 18.8619 442.224 18.8619C439.076 18.8619 436.373 20.0631 434.121 22.4653C431.872 24.8676 430.744 27.7206 430.744 31.0236C430.744 34.3772 431.444 37.1796 432.846 39.4318C434.297 41.6841 436.924 43.8362 440.725 45.8882C441.126 46.0884 442.051 46.5891 443.502 47.3897C444.952 48.1903 446.553 49.0914 448.303 50.0923C450.102 51.0433 451.729 51.9193 453.179 52.7199C454.63 53.4707 455.507 53.9211 455.807 54.0711C460.908 56.9241 464.937 60.4273 467.887 64.5816C470.889 68.7354 472.388 73.8407 472.388 79.8966C472.388 85.7522 471.039 91.0074 468.336 95.6619C465.585 100.316 461.935 103.995 457.381 106.697C452.831 109.4 447.778 110.752 442.224 110.752ZM477.868 108.499L496.926 2.8712C497.024 2.47107 497.275 2.27082 497.676 2.27082H519.962C520.359 2.27082 520.61 2.47107 520.711 2.8712L539.021 108.499C539.069 109 538.871 109.25 538.417 109.25H521.386C520.888 109.25 520.61 109 520.561 108.499L518.909 97.2384H497.976L496.323 108.499C496.274 109 496.023 109.25 495.573 109.25H478.467C478.066 109.25 477.868 109 477.868 108.499ZM509.531 37.6303L508.632 31.9247L507.953 37.6303L501.053 80.7973H515.835L509.531 37.6303ZM577.513 109.25H559.878C559.53 109.25 559.354 109.05 559.354 108.649L559.504 64.9569L538.946 2.8712C538.844 2.47107 538.994 2.27082 539.395 2.27082H556.501C557.004 2.27082 557.303 2.47107 557.401 2.8712L568.731 44.2367L580.286 2.8712C580.388 2.47107 580.639 2.27082 581.04 2.27082H598.296C598.697 2.27082 598.847 2.47107 598.745 2.8712L577.963 64.3562L578.112 108.649C578.112 109.05 577.91 109.25 577.513 109.25ZM601.972 108.499L621.031 2.8712C621.132 2.47107 621.38 2.27082 621.781 2.27082H644.067C644.468 2.27082 644.715 2.47107 644.816 2.8712L663.125 108.499C663.174 109 662.975 109.25 662.526 109.25H645.491C644.992 109.25 644.715 109 644.666 108.499L643.017 97.2384H622.081L620.432 108.499C620.379 109 620.132 109.25 619.682 109.25H602.572C602.171 109.25 601.972 109 601.972 108.499ZM633.636 37.6303L632.736 31.9247L632.062 37.6303L625.158 80.7973H639.94L633.636 37.6303ZM690.737 109.25H673.331C672.93 109.25 672.728 109 672.728 108.499L673.028 2.8712C673.028 2.47107 673.23 2.27082 673.631 2.27082H692.386C692.787 2.27082 693.14 2.47107 693.439 2.8712L707.468 23.1411L721.426 2.8712C721.726 2.47107 722.101 2.27082 722.55 2.27082H741.384C741.834 2.27082 742.059 2.47107 742.059 2.8712L742.359 108.499C742.359 109 742.16 109.25 741.759 109.25H724.353C723.952 109.25 723.753 109 723.753 108.499L723.604 30.0478L707.468 53.4707L691.487 30.0478L691.337 108.499C691.337 109 691.138 109.25 690.737 109.25ZM750.091 108.499L769.146 2.8712C769.247 2.47107 769.498 2.27082 769.899 2.27082H792.181C792.582 2.27082 792.833 2.47107 792.935 2.8712L811.24 108.499C811.293 109 811.09 109.25 810.64 109.25H793.609C793.107 109.25 792.833 109 792.785 108.499L791.132 97.2384H770.199L768.546 108.499C768.498 109 768.246 109.25 767.797 109.25H750.691C750.29 109.25 750.091 109 750.091 108.499ZM781.754 37.6303L780.855 31.9247L780.176 37.6303L773.276 80.7973H788.055L781.754 37.6303Z" fill="#FAF9F6"/>
<path d="M38.5668 147.636L35.3461 195.5H26.891L20.9615 178.471L19.3144 173.015L17.5941 178.911L12.1038 195.5H3.94163L0.647461 147.636H6.79658L8.66325 180.193L9.2123 189.128L11.5182 181.547L17.3013 163.786H21.8033L28.4649 182.829L30.6976 189.128L30.844 182.536L32.7473 147.636H38.5668ZM73.3606 175.175C73.3606 176.079 73.3486 176.836 73.3242 177.446C73.2998 178.056 73.2631 178.63 73.2144 179.167H47.41C47.41 182.927 48.4594 185.82 50.5579 187.846C52.6564 189.848 55.6819 190.849 59.6349 190.849C60.7087 190.849 61.7825 190.813 62.856 190.739C63.9298 190.642 64.9669 190.52 65.9672 190.373C66.9676 190.227 67.9192 190.068 68.8221 189.897C69.7493 189.702 70.6035 189.494 71.3842 189.274V194.511C69.6519 194.999 67.6875 195.39 65.4912 195.683C63.3196 196.001 61.0625 196.159 58.72 196.159C55.5724 196.159 52.8637 195.732 50.5943 194.878C48.3252 194.023 46.4583 192.79 44.9943 191.179C43.5547 189.543 42.4809 187.553 41.7733 185.21C41.09 182.841 40.7486 180.168 40.7486 177.19C40.7486 174.602 41.1144 172.16 41.8464 169.865C42.6031 167.546 43.6889 165.52 45.1042 163.786C46.5438 162.028 48.3005 160.637 50.3746 159.611C52.4488 158.586 54.8037 158.073 57.4389 158.073C60.0011 158.073 62.2705 158.476 64.2469 159.282C66.2232 160.087 67.8828 161.235 69.2246 162.724C70.5911 164.189 71.6159 165.983 72.2991 168.107C73.0068 170.207 73.3606 172.563 73.3606 175.175ZM66.7359 174.26C66.809 172.624 66.6505 171.135 66.2599 169.792C65.8694 168.425 65.2596 167.253 64.4298 166.276C63.6247 165.3 62.612 164.543 61.392 164.006C60.172 163.444 58.7567 163.164 57.1462 163.164C55.7553 163.164 54.4862 163.432 53.3393 163.969C52.1928 164.506 51.2045 165.263 50.3746 166.24C49.5452 167.216 48.8739 168.388 48.3616 169.756C47.8492 171.122 47.5321 172.624 47.41 174.26H66.7359ZM111.192 176.457C111.192 179.509 110.766 182.243 109.911 184.66C109.082 187.053 107.886 189.091 106.325 190.776C104.787 192.436 102.908 193.718 100.688 194.621C98.4671 195.5 95.9661 195.94 93.1843 195.94C91.0127 195.94 88.792 195.732 86.5229 195.317C84.2535 194.902 82.0084 194.243 79.7881 193.339V143.755H86.1567V158L85.864 164.812C87.6942 162.346 89.6461 160.612 91.7203 159.611C93.8188 158.586 96.0635 158.073 98.4551 158.073C100.554 158.073 102.396 158.513 103.982 159.392C105.568 160.271 106.898 161.516 107.971 163.127C109.045 164.714 109.85 166.643 110.387 168.913C110.924 171.159 111.192 173.674 111.192 176.457ZM104.677 176.75C104.677 174.821 104.531 173.051 104.238 171.44C103.97 169.829 103.53 168.449 102.921 167.302C102.31 166.154 101.53 165.263 100.578 164.629C99.6264 163.969 98.4915 163.64 97.1741 163.64C96.3686 163.64 95.5512 163.774 94.7217 164.042C93.8919 164.287 93.0257 164.714 92.1228 165.324C91.2443 165.91 90.305 166.704 89.3047 167.705C88.3283 168.681 87.2793 169.902 86.1567 171.367V189.201C87.4011 189.689 88.6702 190.08 89.9632 190.373C91.2567 190.642 92.489 190.776 93.6603 190.776C95.1243 190.776 96.5152 190.544 97.8326 190.08C99.1748 189.616 100.346 188.847 101.346 187.773C102.371 186.674 103.177 185.234 103.762 183.452C104.372 181.645 104.677 179.411 104.677 176.75ZM152.853 177.885C152.853 174.76 153.28 171.989 154.134 169.572C154.988 167.131 156.196 165.08 157.757 163.42C159.343 161.735 161.235 160.466 163.431 159.611C165.651 158.732 168.116 158.293 170.824 158.293C171.995 158.293 173.142 158.366 174.265 158.513C175.412 158.659 176.534 158.891 177.632 159.209V143.755H184.037V195.5H178.328L178.108 188.542C176.327 191.13 174.399 193.046 172.325 194.291C170.251 195.537 168.006 196.159 165.59 196.159C163.492 196.159 161.637 195.72 160.027 194.841C158.441 193.962 157.111 192.729 156.037 191.142C154.988 189.531 154.195 187.602 153.658 185.356C153.121 183.11 152.853 180.62 152.853 177.885ZM159.368 177.482C159.368 181.926 160.014 185.246 161.308 187.444C162.625 189.616 164.48 190.703 166.871 190.703C168.482 190.703 170.177 189.982 171.959 188.542C173.765 187.102 175.656 184.966 177.632 182.133V165.068C176.583 164.58 175.424 164.213 174.155 163.969C172.886 163.701 171.629 163.567 170.385 163.567C166.92 163.567 164.211 164.69 162.259 166.936C160.332 169.182 159.368 172.697 159.368 177.482ZM223.223 175.175C223.223 176.079 223.211 176.836 223.187 177.446C223.162 178.056 223.126 178.63 223.077 179.167H197.273C197.273 182.927 198.322 185.82 200.42 187.846C202.519 189.848 205.545 190.849 209.498 190.849C210.572 190.849 211.645 190.813 212.719 190.739C213.792 190.642 214.829 190.52 215.83 190.373C216.83 190.227 217.782 190.068 218.685 189.897C219.612 189.702 220.466 189.494 221.247 189.274V194.511C219.514 194.999 217.55 195.39 215.354 195.683C213.182 196.001 210.925 196.159 208.583 196.159C205.435 196.159 202.726 195.732 200.457 194.878C198.188 194.023 196.321 192.79 194.857 191.179C193.417 189.543 192.344 187.553 191.636 185.21C190.953 182.841 190.611 180.168 190.611 177.19C190.611 174.602 190.977 172.16 191.709 169.865C192.466 167.546 193.552 165.52 194.967 163.786C196.407 162.028 198.163 160.637 200.237 159.611C202.312 158.586 204.666 158.073 207.302 158.073C209.864 158.073 212.133 158.476 214.11 159.282C216.086 160.087 217.745 161.235 219.087 162.724C220.454 164.189 221.479 165.983 222.162 168.107C222.87 170.207 223.223 172.563 223.223 175.175ZM216.598 174.26C216.672 172.624 216.513 171.135 216.123 169.792C215.732 168.425 215.122 167.253 214.293 166.276C213.487 165.3 212.475 164.543 211.255 164.006C210.034 163.444 208.619 163.164 207.009 163.164C205.618 163.164 204.349 163.432 203.202 163.969C202.055 164.506 201.067 165.263 200.237 166.24C199.408 167.216 198.737 168.388 198.224 169.756C197.712 171.122 197.395 172.624 197.273 174.26H216.598ZM258.749 185.466C258.749 186.76 258.529 187.919 258.091 188.945C257.651 189.97 257.053 190.886 256.297 191.692C255.54 192.473 254.662 193.144 253.661 193.706C252.661 194.267 251.587 194.731 250.44 195.097C249.318 195.463 248.159 195.732 246.963 195.903C245.768 196.074 244.597 196.159 243.45 196.159C240.961 196.159 238.667 196.049 236.569 195.83C234.494 195.61 232.457 195.256 230.456 194.768V188.908C232.603 189.518 234.738 189.982 236.861 190.3C238.984 190.617 241.095 190.776 243.193 190.776C246.243 190.776 248.501 190.361 249.965 189.531C251.429 188.701 252.161 187.517 252.161 185.978C252.161 185.32 252.039 184.733 251.795 184.221C251.575 183.684 251.16 183.183 250.55 182.719C249.94 182.231 248.989 181.73 247.695 181.218C246.427 180.705 244.682 180.119 242.461 179.46C240.802 178.972 239.265 178.423 237.85 177.812C236.459 177.177 235.251 176.433 234.226 175.578C233.201 174.724 232.396 173.723 231.81 172.575C231.225 171.428 230.932 170.073 230.932 168.51C230.932 167.485 231.164 166.362 231.627 165.141C232.115 163.921 232.933 162.785 234.08 161.735C235.226 160.685 236.776 159.819 238.728 159.135C240.68 158.427 243.12 158.073 246.048 158.073C247.488 158.073 249.086 158.159 250.843 158.33C252.6 158.476 254.43 158.745 256.333 159.135V164.812C254.332 164.323 252.429 163.969 250.624 163.75C248.842 163.505 247.293 163.383 245.975 163.383C244.389 163.383 243.047 163.505 241.949 163.75C240.875 163.994 239.997 164.336 239.314 164.775C238.655 165.19 238.179 165.691 237.886 166.276C237.593 166.838 237.447 167.448 237.447 168.107C237.447 168.767 237.569 169.365 237.813 169.902C238.081 170.439 238.557 170.964 239.241 171.477C239.948 171.965 240.924 172.465 242.169 172.978C243.413 173.466 245.036 174.004 247.036 174.589C249.208 175.224 251.038 175.895 252.527 176.603C254.015 177.287 255.223 178.056 256.151 178.911C257.078 179.765 257.737 180.73 258.127 181.804C258.542 182.878 258.749 184.099 258.749 185.466ZM279.634 164.006H268.763V158.732H286.076V190.19H297.02V195.5H267.555V190.19H279.634V164.006ZM281.867 143.315C282.575 143.315 283.233 143.449 283.843 143.718C284.453 143.962 284.978 144.316 285.417 144.78C285.881 145.244 286.235 145.781 286.479 146.391C286.747 146.977 286.881 147.624 286.881 148.332C286.881 149.016 286.747 149.663 286.479 150.273C286.235 150.883 285.881 151.42 285.417 151.884C284.978 152.348 284.453 152.714 283.843 152.983C283.233 153.227 282.575 153.349 281.867 153.349C281.159 153.349 280.5 153.227 279.891 152.983C279.28 152.714 278.744 152.348 278.28 151.884C277.841 151.42 277.487 150.883 277.219 150.273C276.975 149.663 276.852 149.016 276.852 148.332C276.852 147.624 276.975 146.977 277.219 146.391C277.487 145.781 277.841 145.244 278.28 144.78C278.744 144.316 279.28 143.962 279.891 143.718C280.5 143.449 281.159 143.315 281.867 143.315ZM331.045 163.933C331.728 164.787 332.253 165.788 332.619 166.936C333.01 168.059 333.205 169.279 333.205 170.598C333.205 172.502 332.851 174.248 332.143 175.835C331.46 177.397 330.484 178.74 329.215 179.863C327.946 180.986 326.421 181.865 324.64 182.5C322.883 183.11 320.943 183.415 318.82 183.415C317.283 183.415 315.843 183.256 314.501 182.939C313.159 182.597 312.098 182.182 311.317 181.694C310.853 182.378 310.463 183.025 310.145 183.635C309.828 184.245 309.67 184.929 309.67 185.686C309.67 186.613 310.109 187.382 310.987 187.993C311.89 188.603 313.074 188.933 314.538 188.981L324.201 189.348C326.031 189.397 327.714 189.628 329.252 190.043C330.813 190.459 332.143 191.057 333.241 191.838C334.364 192.619 335.23 193.583 335.84 194.731C336.475 195.878 336.792 197.209 336.792 198.723C336.792 200.359 336.438 201.909 335.73 203.374C335.023 204.838 333.924 206.12 332.436 207.219C330.972 208.342 329.105 209.233 326.836 209.892C324.567 210.551 321.87 210.881 318.747 210.881C315.77 210.881 313.232 210.637 311.134 210.148C309.06 209.685 307.352 209.026 306.009 208.171C304.667 207.341 303.691 206.34 303.082 205.168C302.471 204.02 302.166 202.751 302.166 201.359C302.166 199.577 302.581 198.015 303.411 196.672C304.24 195.329 305.522 194.035 307.254 192.79C306.62 192.497 306.071 192.131 305.607 191.692C305.143 191.252 304.765 190.776 304.472 190.263C304.179 189.726 303.96 189.164 303.814 188.579C303.667 187.993 303.594 187.419 303.594 186.857C303.594 185.27 303.96 183.818 304.692 182.5C305.448 181.181 306.339 179.936 307.364 178.764C306.9 178.203 306.486 177.653 306.119 177.116C305.778 176.579 305.473 176.005 305.204 175.395C304.96 174.76 304.765 174.089 304.619 173.381C304.497 172.648 304.436 171.818 304.436 170.891C304.436 168.986 304.777 167.253 305.46 165.691C306.168 164.104 307.144 162.749 308.389 161.626C309.657 160.502 311.171 159.636 312.927 159.025C314.709 158.391 316.673 158.073 318.82 158.073C319.723 158.073 320.589 158.134 321.419 158.257C322.249 158.378 322.981 158.537 323.615 158.732H336.938V163.933H331.045ZM308.938 200.81C308.938 202.544 309.84 203.801 311.646 204.582C313.452 205.388 315.965 205.79 319.186 205.79C321.212 205.79 322.908 205.607 324.274 205.241C325.665 204.875 326.775 204.387 327.605 203.776C328.459 203.191 329.069 202.507 329.435 201.726C329.801 200.969 329.984 200.188 329.984 199.382C329.984 197.893 329.374 196.794 328.154 196.086C326.934 195.378 325.067 194.963 322.554 194.841L312.964 194.511C312.159 195.049 311.488 195.573 310.951 196.086C310.439 196.599 310.036 197.111 309.743 197.624C309.45 198.161 309.243 198.686 309.121 199.199C308.999 199.736 308.938 200.273 308.938 200.81ZM310.877 170.744C310.877 171.916 311.073 172.99 311.463 173.967C311.854 174.943 312.403 175.774 313.11 176.457C313.818 177.141 314.648 177.678 315.599 178.069C316.575 178.435 317.649 178.618 318.82 178.618C320.089 178.618 321.212 178.41 322.188 177.995C323.188 177.556 324.018 176.97 324.677 176.237C325.36 175.505 325.872 174.663 326.214 173.711C326.58 172.758 326.763 171.77 326.763 170.744C326.763 169.572 326.567 168.498 326.177 167.522C325.787 166.545 325.238 165.715 324.53 165.031C323.822 164.348 322.981 163.823 322.005 163.457C321.053 163.066 319.992 162.871 318.82 162.871C317.551 162.871 316.417 163.09 315.416 163.53C314.44 163.969 313.61 164.555 312.927 165.288C312.268 165.996 311.756 166.826 311.39 167.778C311.048 168.73 310.877 169.719 310.877 170.744ZM342.048 158.732H347.721L347.977 164.665C349.051 163.396 350.088 162.346 351.089 161.516C352.089 160.661 353.065 159.977 354.017 159.465C354.993 158.952 355.981 158.598 356.981 158.403C357.982 158.183 359.019 158.073 360.092 158.073C363.875 158.073 366.729 159.196 368.657 161.443C370.609 163.664 371.585 167.021 371.585 171.513V195.5H365.217V172.026C365.217 169.145 364.68 167.021 363.606 165.654C362.532 164.262 360.934 163.567 358.811 163.567C358.031 163.567 357.262 163.688 356.506 163.933C355.774 164.152 355.005 164.555 354.199 165.141C353.394 165.703 352.516 166.472 351.564 167.448C350.637 168.425 349.588 169.646 348.417 171.11V195.5H342.048V158.732ZM448.603 170.524C448.603 173.723 448.284 176.628 447.651 179.24C447.018 181.853 446.114 184.196 444.941 186.272L452.336 195.5H443.88L440.661 191.508C438.929 192.973 436.988 194.096 434.84 194.878C432.719 195.634 430.414 196.013 427.921 196.013C425.556 196.013 423.457 195.683 421.628 195.024C419.796 194.365 418.259 193.449 417.015 192.277C415.77 191.081 414.818 189.665 414.162 188.029C413.525 186.394 413.21 184.587 413.21 182.609C413.21 180.754 413.454 179.106 413.941 177.665C414.428 176.201 415.088 174.907 415.916 173.784C416.748 172.636 417.7 171.635 418.772 170.781C419.871 169.902 421.017 169.096 422.213 168.364L421.407 167.228C420.043 165.544 419.016 163.835 418.334 162.102C417.674 160.368 417.344 158.671 417.344 157.011C417.344 155.254 417.626 153.63 418.188 152.141C418.75 150.652 419.567 149.37 420.639 148.295C421.737 147.197 423.079 146.342 424.664 145.732C426.276 145.122 428.105 144.817 430.155 144.817C432.13 144.817 433.866 145.097 435.354 145.659C436.842 146.22 438.086 146.989 439.087 147.966C440.087 148.942 440.83 150.078 441.321 151.372C441.83 152.641 442.089 153.996 442.089 155.437C442.089 157.268 441.77 158.879 441.137 160.271C440.526 161.638 439.709 162.859 438.686 163.933C437.685 164.983 436.523 165.922 435.208 166.753C433.914 167.582 432.584 168.388 431.216 169.169L440.661 180.961C441.733 178.081 442.235 174.602 442.16 170.524H448.603ZM419.833 181.84C419.833 183.134 420.043 184.318 420.455 185.393C420.871 186.467 421.456 187.394 422.213 188.176C422.993 188.933 423.933 189.518 425.032 189.934C426.152 190.349 427.412 190.556 428.802 190.556C431.973 190.556 434.754 189.384 437.145 187.04L425.508 172.465C424.679 173.027 423.907 173.625 423.203 174.26C422.517 174.895 421.921 175.591 421.407 176.347C420.92 177.104 420.53 177.934 420.238 178.837C419.968 179.741 419.833 180.742 419.833 181.84ZM435.646 156.059C435.646 154.228 435.133 152.8 434.109 151.774C433.082 150.725 431.692 150.2 429.938 150.2C428.96 150.2 428.094 150.358 427.337 150.676C426.606 150.993 425.984 151.433 425.47 151.994C424.957 152.556 424.567 153.215 424.301 153.972C424.057 154.729 423.933 155.546 423.933 156.425C423.933 157.744 424.177 158.977 424.664 160.124C425.155 161.247 425.935 162.492 427.007 163.859L427.996 165.141C429.046 164.555 430.035 163.969 430.961 163.383C431.887 162.773 432.693 162.114 433.378 161.406C434.083 160.673 434.634 159.88 435.024 159.025C435.44 158.147 435.646 157.158 435.646 156.059ZM486.068 170.524C486.068 173.723 485.75 176.628 485.116 179.24C484.483 181.853 483.58 184.196 482.41 186.272L489.801 195.5H481.346L478.126 191.508C476.395 192.973 474.453 194.096 472.306 194.878C470.184 195.634 467.879 196.013 465.39 196.013C463.022 196.013 460.923 195.683 459.094 195.024C457.265 194.365 455.724 193.449 454.48 192.277C453.236 191.081 452.284 189.665 451.628 188.029C450.99 186.394 450.676 184.587 450.676 182.609C450.676 180.754 450.919 179.106 451.407 177.665C451.894 176.201 452.553 174.907 453.382 173.784C454.214 172.636 455.166 171.635 456.238 170.781C457.336 169.902 458.483 169.096 459.678 168.364L458.873 167.228C457.508 165.544 456.481 163.835 455.799 162.102C455.14 160.368 454.81 158.671 454.81 157.011C454.81 155.254 455.091 153.63 455.653 152.141C456.215 150.652 457.032 149.37 458.104 148.295C459.202 147.197 460.544 146.342 462.13 145.732C463.741 145.122 465.57 144.817 467.62 144.817C469.599 144.817 471.331 145.097 472.819 145.659C474.307 146.22 475.551 146.989 476.552 147.966C477.553 148.942 478.299 150.078 478.786 151.372C479.296 152.641 479.554 153.996 479.554 155.437C479.554 157.268 479.236 158.879 478.602 160.271C477.991 161.638 477.174 162.859 476.151 163.933C475.15 164.983 473.988 165.922 472.673 166.753C471.38 167.582 470.049 168.388 468.681 169.169L478.126 180.961C479.198 178.081 479.7 174.602 479.625 170.524H486.068ZM457.298 181.84C457.298 183.134 457.508 184.318 457.921 185.393C458.337 186.467 458.921 187.394 459.678 188.176C460.458 188.933 461.399 189.518 462.497 189.934C463.621 190.349 464.877 190.556 466.267 190.556C469.438 190.556 472.219 189.384 474.611 187.04L462.973 172.465C462.145 173.027 461.376 173.625 460.668 174.26C459.982 174.895 459.386 175.591 458.873 176.347C458.385 177.104 457.996 177.934 457.703 178.837C457.433 179.741 457.298 180.742 457.298 181.84ZM473.111 156.059C473.111 154.228 472.598 152.8 471.575 151.774C470.548 150.725 469.157 150.2 467.403 150.2C466.425 150.2 465.559 150.358 464.802 150.676C464.071 150.993 463.449 151.433 462.935 151.994C462.426 152.556 462.032 153.215 461.766 153.972C461.522 154.729 461.399 155.546 461.399 156.425C461.399 157.744 461.642 158.977 462.13 160.124C462.621 161.247 463.4 162.492 464.472 163.859L465.462 165.141C466.511 164.555 467.501 163.969 468.426 163.383C469.352 162.773 470.158 162.114 470.844 161.406C471.548 160.673 472.099 159.88 472.489 159.025C472.905 158.147 473.111 157.158 473.111 156.059ZM527.51 177.885C527.51 174.76 527.938 171.989 528.792 169.572C529.643 167.131 530.853 165.08 532.413 163.42C534.002 161.735 535.891 160.466 538.087 159.611C540.306 158.732 542.772 158.293 545.482 158.293C546.651 158.293 547.798 158.366 548.923 158.513C550.07 158.659 551.19 158.891 552.289 159.209V143.755H558.694V195.5H552.986L552.765 188.542C550.984 191.13 549.054 193.046 546.981 194.291C544.909 195.537 542.664 196.159 540.246 196.159C538.147 196.159 536.296 195.72 534.684 194.841C533.099 193.962 531.768 192.729 530.692 191.142C529.643 189.531 528.852 187.602 528.316 185.356C527.776 183.11 527.51 180.62 527.51 177.885ZM534.024 177.482C534.024 181.926 534.673 185.246 535.966 187.444C537.281 189.616 539.137 190.703 541.528 190.703C543.14 190.703 544.834 189.982 546.614 188.542C548.421 187.102 550.313 184.966 552.289 182.133V165.068C551.239 164.58 550.081 164.213 548.81 163.969C547.543 163.701 546.288 163.567 545.044 163.567C541.577 163.567 538.867 164.69 536.918 166.936C534.988 169.182 534.024 172.697 534.024 177.482ZM597.88 175.175C597.88 176.079 597.868 176.836 597.842 177.446C597.82 178.056 597.782 178.63 597.733 179.167H571.928C571.928 182.927 572.978 185.82 575.077 187.846C577.175 189.848 580.2 190.849 584.154 190.849C585.23 190.849 586.302 190.813 587.374 190.739C588.45 190.642 589.488 190.52 590.485 190.373C591.485 190.227 592.437 190.068 593.341 189.897C594.27 189.702 595.121 189.494 595.904 189.274V194.511C594.173 194.999 592.205 195.39 590.012 195.683C587.839 196.001 585.582 196.159 583.24 196.159C580.091 196.159 577.382 195.732 575.114 194.878C572.843 194.023 570.976 192.79 569.514 191.179C568.075 189.543 567 187.553 566.291 185.21C565.609 182.841 565.268 180.168 565.268 177.19C565.268 174.602 565.635 172.16 566.366 169.865C567.123 167.546 568.206 165.52 569.623 163.786C571.062 162.028 572.82 160.637 574.893 159.611C576.969 158.586 579.323 158.073 581.958 158.073C584.522 158.073 586.789 158.476 588.768 159.282C590.743 160.087 592.404 161.235 593.746 162.724C595.11 164.189 596.137 165.983 596.819 168.107C597.527 170.207 597.88 172.563 597.88 175.175ZM591.257 174.26C591.328 172.624 591.171 171.135 590.781 169.792C590.387 168.425 589.78 167.253 588.948 166.276C588.146 165.3 587.13 164.543 585.912 164.006C584.69 163.444 583.277 163.164 581.666 163.164C580.275 163.164 579.004 163.432 577.858 163.969C576.711 164.506 575.725 165.263 574.893 166.24C574.065 167.216 573.394 168.388 572.88 169.756C572.371 171.122 572.052 172.624 571.928 174.26H591.257ZM600.867 158.732H608.115L617.118 183.049L619.06 188.981L621.072 182.902L630 158.732H636.994L622.572 195.5H615.252L600.867 158.732ZM672.81 175.175C672.81 176.079 672.799 176.836 672.776 177.446C672.75 178.056 672.713 178.63 672.664 179.167H646.863C646.863 182.927 647.908 185.82 650.007 187.846C652.106 189.848 655.135 190.849 659.085 190.849C660.161 190.849 661.233 190.813 662.308 190.739C663.38 190.642 664.418 190.52 665.419 190.373C666.42 190.227 667.372 190.068 668.271 189.897C669.201 189.702 670.055 189.494 670.835 189.274V194.511C669.103 194.999 667.139 195.39 664.943 195.683C662.769 196.001 660.513 196.159 658.17 196.159C655.022 196.159 652.316 195.732 650.045 194.878C647.777 194.023 645.911 192.79 644.445 191.179C643.006 189.543 641.93 187.553 641.226 185.21C640.54 182.841 640.199 180.168 640.199 177.19C640.199 174.602 640.566 172.16 641.297 169.865C642.054 167.546 643.141 165.52 644.554 163.786C645.993 162.028 647.751 160.637 649.827 159.611C651.9 158.586 654.254 158.073 656.889 158.073C659.452 158.073 661.72 158.476 663.699 159.282C665.674 160.087 667.334 161.235 668.676 162.724C670.04 164.189 671.067 165.983 671.75 168.107C672.458 170.207 672.81 172.563 672.81 175.175ZM666.187 174.26C666.259 172.624 666.101 171.135 665.711 169.792C665.322 168.425 664.711 167.253 663.882 166.276C663.077 165.3 662.065 164.543 660.843 164.006C659.621 163.444 658.208 163.164 656.596 163.164C655.206 163.164 653.939 163.432 652.792 163.969C651.645 164.506 650.656 165.263 649.827 166.24C648.995 167.216 648.324 168.388 647.811 169.756C647.301 171.122 646.983 172.624 646.863 174.26H666.187ZM691.757 148.991H680.887V143.755H698.199V190.19H709.144V195.5H679.677V190.19H691.757V148.991ZM748.693 176.823C748.693 179.68 748.292 182.304 747.486 184.697C746.68 187.065 745.522 189.104 744.008 190.813C742.497 192.497 740.653 193.816 738.483 194.768C736.309 195.695 733.847 196.159 731.088 196.159C728.454 196.159 726.089 195.757 723.99 194.951C721.913 194.121 720.144 192.912 718.682 191.325C717.243 189.738 716.13 187.773 715.35 185.429C714.593 183.086 714.215 180.388 714.215 177.336C714.215 174.479 714.619 171.88 715.422 169.536C716.227 167.168 717.389 165.141 718.9 163.457C720.414 161.747 722.254 160.429 724.428 159.502C726.598 158.549 729.064 158.073 731.819 158.073C734.458 158.073 736.812 158.488 738.884 159.319C740.983 160.124 742.752 161.32 744.191 162.907C745.657 164.47 746.766 166.423 747.523 168.767C748.303 171.11 748.693 173.796 748.693 176.823ZM742.179 177.116C742.179 174.846 741.924 172.868 741.41 171.184C740.923 169.475 740.215 168.059 739.289 166.936C738.36 165.788 737.228 164.934 735.882 164.372C734.567 163.786 733.09 163.493 731.456 163.493C729.552 163.493 727.918 163.872 726.549 164.629C725.208 165.361 724.098 166.35 723.221 167.595C722.367 168.84 721.729 170.293 721.317 171.953C720.927 173.588 720.729 175.31 720.729 177.116C720.729 179.387 720.976 181.376 721.463 183.086C721.977 184.795 722.696 186.223 723.622 187.37C724.548 188.493 725.672 189.348 726.988 189.934C728.307 190.495 729.795 190.776 731.456 190.776C733.36 190.776 734.983 190.41 736.324 189.677C737.689 188.92 738.798 187.919 739.653 186.674C740.533 185.429 741.167 183.989 741.557 182.353C741.973 180.693 742.179 178.947 742.179 177.116ZM785.573 176.457C785.573 179.729 785.112 182.585 784.183 185.026C783.28 187.468 782.024 189.494 780.412 191.105C778.805 192.717 776.901 193.925 774.704 194.731C772.508 195.537 770.128 195.94 767.568 195.94C766.395 195.94 765.225 195.878 764.052 195.757C762.905 195.634 761.736 195.427 760.54 195.134V210.515H754.169V158.732H759.843L760.244 164.885C762.077 162.37 764.03 160.612 766.102 159.611C768.175 158.586 770.42 158.073 772.838 158.073C774.937 158.073 776.777 158.513 778.362 159.392C779.951 160.271 781.278 161.516 782.354 163.127C783.426 164.714 784.232 166.643 784.768 168.913C785.307 171.159 785.573 173.674 785.573 176.457ZM779.059 176.75C779.059 174.821 778.913 173.051 778.621 171.44C778.351 169.829 777.913 168.449 777.302 167.302C776.691 166.154 775.911 165.263 774.959 164.629C774.007 163.969 772.875 163.64 771.556 163.64C770.75 163.64 769.933 163.774 769.105 164.042C768.273 164.287 767.407 164.714 766.503 165.324C765.626 165.91 764.686 166.704 763.685 167.705C762.71 168.681 761.661 169.902 760.54 171.367V189.201C761.71 189.689 762.943 190.08 764.236 190.373C765.529 190.642 766.8 190.776 768.044 190.776C771.485 190.776 774.179 189.616 776.132 187.297C778.085 184.953 779.059 181.438 779.059 176.75ZM817.844 195.5V169.096C817.844 167.949 817.795 167.009 817.698 166.276C817.623 165.544 817.488 164.97 817.293 164.555C817.124 164.116 816.892 163.811 816.6 163.64C816.33 163.469 815.989 163.383 815.573 163.383C815.086 163.383 814.636 163.53 814.22 163.823C813.804 164.116 813.354 164.592 812.867 165.251C812.402 165.91 811.877 166.789 811.292 167.888C810.73 168.962 810.059 170.293 809.28 171.88V195.5H803.459V169.792C803.459 168.449 803.41 167.363 803.313 166.533C803.238 165.703 803.103 165.056 802.908 164.592C802.739 164.128 802.507 163.811 802.215 163.64C801.922 163.469 801.566 163.383 801.154 163.383C800.712 163.383 800.3 163.505 799.91 163.75C799.516 163.994 799.078 164.433 798.59 165.068C798.126 165.703 797.601 166.57 797.016 167.668C796.432 168.767 795.734 170.17 794.929 171.88V195.5H789.074V158.732H793.943L794.235 165.727C794.869 164.336 795.48 163.151 796.064 162.175C796.675 161.198 797.297 160.417 797.931 159.831C798.564 159.221 799.235 158.781 799.943 158.513C800.678 158.22 801.48 158.073 802.361 158.073C804.336 158.073 805.839 158.72 806.862 160.014C807.886 161.308 808.399 163.31 808.399 166.02C808.984 164.75 809.557 163.628 810.119 162.651C810.682 161.65 811.278 160.82 811.915 160.161C812.571 159.477 813.29 158.965 814.073 158.623C814.853 158.257 815.756 158.073 816.78 158.073C821.393 158.073 823.698 161.626 823.698 168.73V195.5H817.844ZM860.141 175.175C860.141 176.079 860.129 176.836 860.103 177.446C860.081 178.056 860.043 178.63 859.994 179.167H834.189C834.189 182.927 835.239 185.82 837.338 187.846C839.436 189.848 842.461 190.849 846.415 190.849C847.487 190.849 848.563 190.813 849.635 190.739C850.711 190.642 851.745 190.52 852.746 190.373C853.746 190.227 854.698 190.068 855.602 189.897C856.527 189.702 857.382 189.494 858.162 189.274V194.511C856.43 194.999 854.466 195.39 852.27 195.683C850.1 196.001 847.843 196.159 845.501 196.159C842.352 196.159 839.643 195.732 837.375 194.878C835.104 194.023 833.237 192.79 831.772 191.179C830.332 189.543 829.261 187.553 828.552 185.21C827.87 182.841 827.529 180.168 827.529 177.19C827.529 174.602 827.893 172.16 828.627 169.865C829.38 167.546 830.467 165.52 831.884 163.786C833.323 162.028 835.081 160.637 837.154 159.611C839.227 158.586 841.584 158.073 844.219 158.073C846.779 158.073 849.05 158.476 851.025 159.282C853.004 160.087 854.661 161.235 856.003 162.724C857.371 164.189 858.394 165.983 859.08 168.107C859.785 170.207 860.141 172.563 860.141 175.175ZM853.514 174.26C853.589 172.624 853.428 171.135 853.038 169.792C852.648 168.425 852.037 167.253 851.209 166.276C850.403 165.3 849.391 164.543 848.169 164.006C846.951 163.444 845.535 163.164 843.927 163.164C842.536 163.164 841.265 163.432 840.119 163.969C838.972 164.506 837.982 165.263 837.154 166.24C836.326 167.216 835.655 168.388 835.141 169.756C834.628 171.122 834.313 172.624 834.189 174.26H853.514ZM866.568 158.732H872.239L872.498 164.665C873.57 163.396 874.608 162.346 875.609 161.516C876.609 160.661 877.584 159.977 878.536 159.465C879.51 158.952 880.5 158.598 881.501 158.403C882.501 158.183 883.54 158.073 884.611 158.073C888.393 158.073 891.249 159.196 893.176 161.443C895.128 163.664 896.107 167.021 896.107 171.513V195.5H889.735V172.026C889.735 169.145 889.199 167.021 888.127 165.654C887.051 164.262 885.455 163.567 883.33 163.567C882.55 163.567 881.782 163.688 881.025 163.933C880.294 164.152 879.525 164.555 878.72 165.141C877.914 165.703 877.037 166.472 876.085 167.448C875.155 168.425 874.106 169.646 872.936 171.11V195.5H866.568V158.732ZM933.643 194.987C932.204 195.353 930.716 195.61 929.179 195.757C927.643 195.927 926.08 196.013 924.494 196.013C919.88 196.013 916.44 194.975 914.172 192.9C911.901 190.8 910.769 187.59 910.769 183.269V164.079H900.481V158.732H910.769V148.625L917.137 146.977V158.732H933.643V164.079H917.137V182.756C917.137 185.393 917.83 187.37 919.221 188.689C920.638 189.982 922.71 190.63 925.446 190.63C926.616 190.63 927.898 190.544 929.288 190.373C930.679 190.178 932.129 189.885 933.643 189.494V194.987Z" fill="#FAF9F6"/>
</svg>
